# xmcd
#
# Track frame offsets:
#       150
#       22650
#       49800
#       66300
#       93225
#       141975
#       156525
#       178800
#       198225
#       215025
#       244725
#       258525
#
# Disc length: 3822 seconds
#
# Revision: 0
# Processed by: cddbd v1.5.2PL0 Copyright (c) Steve Scherf et al.
# Submitted via: CD-DA_X-Tractor v0.21
#
DISCID=b20eec0c
DTITLE=Dirk Raufeisen - Hommage a Oscar Peterson
DYEAR=1900
DGENRE=
TTITLE0=Reunion Blues
TTITLE1=Nightingale
TTITLE2=Evrev
TTITLE3=Nigerian Marketplace
TTITLE4=Bach's Blues
TTITLE5=Squeakey's Blues
TTITLE6=City Lights
TTITLE7=Noreen's Nocturne
TTITLE8=The Lamp is Low
TTITLE9=Hymn to Freedom
TTITLE10=Goodbye J.D.
TTITLE11=Tribute to O.P.
EXTD=
EXTT0=
EXTT1=
EXTT2=
EXTT3=
EXTT4=
EXTT5=
EXTT6=
EXTT7=
EXTT8=
EXTT9=
EXTT10=
EXTT11=
PLAYORDER=
